<?xml version="1.0" encoding="utf-8"?>
<!-- Generator: Adobe Illustrator 16.0.0, SVG Export Plug-In . SVG Version: 6.00 Build 0)  -->
<!DOCTYPE svg PUBLIC "-//W3C//DTD SVG 1.1//EN" "http://www.w3.org/Graphics/SVG/1.1/DTD/svg11.dtd">
<svg version="1.1" id="Layer_1" xmlns="http://www.w3.org/2000/svg" xmlns:xlink="http://www.w3.org/1999/xlink" x="0px" y="0px"
	 width="30px" height="30px" viewBox="0 0 150 150" enable-background="new 0 0 150 150" xml:space="preserve">
<g>
	<path fill="#FFF" d="M58.784,59.665l0.324-0.758c-0.108,0.542-0.324,1.3-0.649,2.167c2.709-8.562,6.827-19.616,10.512-26.552
		c1.409-2.384,2.602-4.552,2.71-4.877c0-0.325-1.301,1.301-2.71,3.793c-0.325,0.542-0.758,1.192-0.975,1.518
		c-2.168,3.468-4.552,7.803-6.611,12.788l1.301-2.926c-0.65,1.409-1.192,2.817-1.843,4.443l0.325-0.542
		c-2.168,4.877-4.227,12.03-4.769,15.714c-0.542,3.685,0.108,2.493,1.626-2.601L58.784,59.665z"/>
	<path fill="#FFF" d="M62.794,50.669c-1.192,2.926-2.276,5.744-3.252,8.67l-0.217,0.542l0.325-0.108v-0.108
		c0.542-2.817,1.951-7.369,3.469-11.379l0.541-1.409c0.217-0.759,0.434-1.192,0.434-1.301c0-0.433-0.649,0.867-1.408,2.709
		l-0.867,2.167c-2.168,5.311-4.552,13.98-4.769,17.124c-0.108,0.759,0.217,0.108,0.325,0c0.108,0.217,0.759-1.842,1.409-4.552
		c0.758-2.709,1.3-5.094,1.191-5.311l0.434-1.409l-0.325,1.083c0.108-0.758,0.867-3.251,1.409-5.093
		c0.325-0.976,0.65-1.843,0.976-2.709l-0.759,1.409l-0.434,1.409c0-0.108,0.108-0.325,0.108-0.325
		c-0.867,2.709-1.626,5.31-2.385,8.345c-0.324,1.301-0.649,2.493-0.866,3.793c-0.217,1.083,0,0.975,0.325-0.108L59,62.482
		l-0.216,0.759c1.083-3.901,2.384-7.912,3.793-11.596c0.217-0.542,0.542-1.301,0.542-1.625
		C63.119,49.803,63.011,50.02,62.794,50.669"/>
	<path fill="#FFF" d="M58.676,64.108c-0.217,0.65-0.325,1.192-0.542,2.167c0,0.217,0,0.325-0.108,0.433
		c0.108-0.325,0.217-0.758,0.325-1.192C58.567,64.542,58.676,64.108,58.676,64.108"/>
	<path fill="#FFF" d="M64.202,57.605l0.108-1.734l-0.108,1.951V57.605z M60.518,59.773c-0.108,0.217-0.108,0.434-0.217,0.542
		C60.518,59.773,60.518,59.773,60.518,59.773 M59.217,64l0.108-0.434L59.217,64z M59.325,63.024l-0.108,0.325l0.108-0.65
		C59.325,62.699,59.325,62.808,59.325,63.024 M67.346,40.591c0.867-1.518,1.625-2.709,2.384-3.793
		c0.542-1.083,1.192-2.059,1.843-3.143c1.733-2.817,3.576-5.527,5.744-8.02c-0.325,0.325,0.217-0.325,0.434-0.65l0.758-0.976
		c-2.275,2.601-4.335,5.419-6.285,8.345C70.38,34.955,68.646,37.99,67.346,40.591 M118.391,80.689
		c1.518-6.611,2.601-13.222,3.143-19.941l-0.325,4.877C120.558,70.719,119.691,75.705,118.391,80.689 M65.828,47.093L65.828,47.093
		c-0.217,0.434-0.434,0.758-0.434,0.758C65.611,47.527,65.72,47.31,65.828,47.093 M74.606,29.536l-0.217,0.217l0.65-0.867
		c0,0,0,0,1.084-1.192C76.124,27.694,75.365,28.561,74.606,29.536 M58.459,95.537c0.108,1.734,0.108,3.252,0.325,4.66l0.107,0.759
		c0-0.108,0.108,0.217,0.108,0.867c1.301,11.054,5.202,26.443,16.799,28.828c0.108,0,0.217,0,0.434,0
		c0.759-0.217,2.275,0.108,3.793-0.325l1.192-0.217c4.769-1.301,9.212-4.769,12.788-8.562c0.759-0.759,1.518-1.843,2.385-2.927
		c2.926-3.685,5.31-7.694,7.478-12.029c-0.217,0.217-0.325,0.434-0.325,0.434c0-0.108,0.434-1.192,1.084-2.276l0.867-1.733
		c-0.759,1.733-1.734,3.359-2.602,4.985l-0.325,0.649c-1.083,1.734-2.059,3.577-3.251,5.311
		c-4.985,7.479-11.488,14.631-19.183,16.257c-7.911,1.842-14.414-5.311-17.231-13.222c-0.108-0.217-0.325-0.65-0.325-0.867
		s0-0.108,0.108,0.108c3.576,9.971,12.029,17.448,21.783,11.596c11.488-7.044,18.641-21.024,23.518-34.788
		c5.094-14.739,7.587-29.479,6.503-45.193c-0.759-10.295-3.576-21.35-9.862-26.443c-5.853-5.311-15.173-0.325-21.459,7.369
		c-4.769,5.853-8.453,12.03-9.32,12.68c-0.542,0.434-0.108-1.409,1.518-4.227l-0.976,1.625l-1.517,2.709
		c-1.409,2.493-2.493,4.769-3.252,6.177l-0.976,1.951c-1.517,2.493-3.251,6.828-4.443,8.995v-0.542l-0.217,0.434
		c-0.649,1.734-1.083,2.926-1.408,3.359l-0.108-0.216c-0.108-0.434,0-1.409,0.217-2.926c-0.108,0-0.108-0.217-0.108-0.542
		c-0.542,1.192-0.867,1.734-0.867,0.65c-0.217,0.758-0.325,0.542-0.108-0.325l0.325-1.084l0,0c-0.217,0.434-0.217,0.542-0.434,1.084
		c-0.217,0.759-0.325,1.192-0.325,1.192c-0.542,1.951-0.542,1.951-1.084,3.685c-0.434,1.517-0.759,2.384-0.759,2.384
		c-0.758,1.625-0.758,1.625-0.758,1.3v-0.325c-0.325,1.301-0.434,1.409-0.434,1.734c-0.108,0.325-0.217,0.65-0.217,0.65
		c-0.108,0-0.108,0-0.217,0.217c0,0.108-0.108,0-0.108,0C57.7,68.66,57.7,68.66,57.7,68.66c0-0.217,0.108-0.434,0.108-0.434
		c0.217-0.867,0.217-1.192,0.325-1.409c0.65-1.842,0.65-1.842,0.65-1.842v-0.434L59,64.108l-0.108,0.216
		c0.325-0.975,0.325-0.975,0.325-0.975c-0.325,1.083-0.325,1.083-0.325,1.083c0.542-2.276,0.65-2.276,0.867-3.143
		c0.325-0.976,0.434-1.734,0.542-1.842l-0.325,0.216c0.65-2.384,0.759-2.384,1.518-4.66l0.217-0.542c0-0.217,0.217-0.65,0.325-1.084
		l0.434-1.192l0.108-0.217l0,0c0.108-0.434,0.217-0.65,0.325-0.976c0.108-0.217,0.108-0.217,0.108-0.217l0,0
		c0.217-0.65,0.649-1.734,1.517-4.335l0.867-1.951l-0.325,0.542c-0.217,0.325-0.108,0-0.217,0.217
		C62.686,49.911,60.518,55.33,59,60.857c-0.216,0.975-0.541,1.951-0.649,2.059s0-0.65,0.325-1.625
		c2.601-11.271,8.236-24.71,15.822-34.247c1.951-2.493,4.118-4.985,6.503-7.261l-0.325,0.325l1.95-1.625l0.217-0.217l-1.517,1.192
		l-1.084,0.867c-5.419,5.419-9.32,10.946-12.788,17.232c-1.843,3.359-3.36,6.286-4.769,9.646c-0.325,0.867-0.65,1.409-0.65,1.3
		s0.325-0.975,0.65-1.842C67.021,35.389,74.606,23.25,83.06,17.073c1.951-1.409,3.794-2.709,5.636-3.468h0.108l-1.409,0.542
		c1.626-0.867,2.493-1.301,4.119-1.734l-0.65,0.108c4.227-1.734,9.754-2.167,14.414-0.108s7.911,5.744,9.862,9.212
		c0.217,0.216,0.325,0.542,0.434,0.867c1.842,2.926,3.251,6.177,4.335,9.971c-0.434-1.301-0.65-2.601-1.192-3.901
		c1.084,2.709,1.842,5.527,2.492,8.453c1.734,8.128,1.409,17.34,0.759,21.567c-0.759,15.606-4.335,30.995-10.621,45.301
		c-0.324,0.759-0.649,1.409-0.758,1.518s0.108-0.434,0.434-1.192c4.552-10.295,7.478-21.241,9.32-32.404
		c-1.626,9.32-4.119,18.532-7.695,27.527c-0.434,1.192-0.867,2.276-1.409,3.469l-1.517,3.359
		c-5.636,10.838-11.922,21.675-24.385,27.853c-5.311,2.385-12.246,2.276-17.015-1.192c-4.877-3.251-7.804-8.128-9.862-13.33
		c-5.527-14.739-5.202-29.045-3.144-43.893c0.325-1.95,0.759-3.793,0.867-4.01s0,1.192-0.325,3.143
		c-2.059,15.281-2.492,31.321,3.793,46.277c2.927,7.044,10.079,15.173,19.616,13.98c8.995-1.192,15.39-7.479,20.483-13.655
		c2.275-2.71,4.118-5.636,5.961-8.67h-0.108c-0.108,0,0.108-0.325,0.325-0.867c-1.951,3.359-4.119,6.719-6.72,9.754
		c-3.468,4.335-7.478,8.345-12.788,11.054c-5.094,2.818-12.681,3.252-17.991-0.758c-7.261-5.419-9.536-13.114-11.162-20.267
		c-2.168-9.212-2.385-18.642-1.734-28.069c0-0.325,0.108-0.759,0.108-0.867s0,0.108,0,0.434c-0.542,6.502-0.434,13.113,0.325,19.833
		c0-1.084,0-1.734,0.108-1.626s0.325,0.867,0.434,2.168l-0.325-4.553c-0.108-0.975,0-1.625,0-1.625c0.108,0,0.108,0.758,0.217,1.625
		c0.325,6.178,1.301,12.355,3.359,18.208c2.493,6.719,6.828,14.197,14.739,15.931c-0.976-0.325-1.733-0.542-2.059-0.867l0,0
		c-0.976-0.541-2.168-0.866-3.035-1.625c-8.887-6.503-11.379-17.99-12.68-28.286c-1.084-10.621-0.217-21.458,1.951-31.971
		c0.108-0.434,0.108-0.759,0.217-0.759c0,0,0,0.325-0.108,0.65c-1.301,6.394-2.06,12.789-2.276,19.292l0,0c0-0.217,0-0.326,0.108,0
		c0,0.217,0,0.758,0,0.975c0,0.325,0,0.217-0.108,0c-0.217,11.922,0.976,24.493,7.694,34.572
		c-6.068-9.429-7.261-20.809-7.478-31.646v-3.576c0-0.324,0-0.758,0.108-0.867c0-0.107,0,0.109,0,0.434v0.976
		c0.108-2.06,0.217-3.685,0.434-3.576c0.108,0.108,0.108,1.843,0.108,4.01c-0.108,5.744,0.217,11.488,1.192,17.016L59,109.626
		l0.434,1.843c-1.95-8.67-2.167-17.557-1.408-26.336c0.108-0.758,0.108-1.408,0.217-1.408c0,0,0,0.541,0,1.301
		c-0.65,14.847-0.108,32.512,11.054,43.458c3.901,3.035,9.104,3.793,13.655,1.734c-0.541,0.217-1.191,0.434-1.733,0.542
		c-7.912,2.059-14.522-3.901-17.665-10.621c-3.252-6.828-4.877-14.631-5.202-22.76c0-0.433,0-0.758,0-0.758s0,0.217,0.108,0.65
		c0.434,8.02,1.842,15.281,4.985,22.434c2.709,5.744,7.152,10.621,12.68,11.271c-11.597-2.493-15.606-16.907-16.907-28.395
		c0-0.542-0.108-1.084-0.108-1.409c0,0,0-0.108-0.108-0.325c-0.216-1.518-0.324-3.252-0.433-4.985c0-0.325,0-0.759,0-0.867
		C58.351,94.995,58.351,95.104,58.459,95.537"/>
	<path fill="#FFF" d="M84.577,53.271l0.108,0.217c-0.108-0.108-0.217-0.325-0.434-0.542c1.084,2.601,3.251,5.744,4.66,7.695
		c0.434,0.759,0.867,1.409,1.084,1.409s0-0.65-0.325-1.409l-0.217-0.542c-0.325-1.3-0.867-2.709-1.734-4.227l0.434,0.976
		l-0.759-1.409v0.217c-0.649-1.625-1.95-3.576-2.817-4.335c-0.867-0.867-1.084-0.217-0.325,1.3L84.577,53.271z"/>
	<path fill="#FFF" d="M85.336,56.414l-1.192-2.709l-0.108-0.217l-0.217,0.217l0,0c0.65,0.65,1.409,1.842,2.168,3.035l0.325,0.433
		c0.108,0.217,0.217,0.325,0.325,0.325c0.217,0,0-0.434-0.217-0.975l-0.325-0.65c-0.759-1.625-2.276-4.01-3.252-4.66
		c-0.217-0.108-0.217,0.108-0.217,0.217c-0.216,0,0.108,0.65,0.542,1.409c0.542,0.759,0.976,1.301,1.192,1.301l0.217,0.434
		l-0.217-0.217c0.217,0.108,0.65,0.867,1.084,1.3l0.542,0.759l0.108-0.65L85.77,55.33v0.108l-1.626-2.167l-0.867-0.975
		c-0.217-0.217-0.325-0.108-0.217,0.216l0.217,0.542v-0.217l1.843,3.36c0.108,0.217,0.217,0.434,0.325,0.434
		C85.444,56.739,85.444,56.63,85.336,56.414"/>
	<path fill="#FFF" d="M83.06,52.62c-0.108-0.217-0.217-0.325-0.325-0.65l-0.108-0.108l0.217,0.325
		C82.843,52.62,82.951,52.729,83.06,52.62"/>
	<path fill="#FFF" d="M82.626,51.97c0-0.108-0.107-0.108-0.107-0.108L82.626,51.97L82.626,51.97L82.626,51.97z"/>
	<path fill="#FFF" d="M81.326,56.63l0.65,0.217L81.326,56.63L81.326,56.63z M83.276,54.246l-0.108-0.217
		C83.276,54.246,83.276,54.246,83.276,54.246 M82.626,53.054l0.108,0.108L82.626,53.054z M82.843,53.162L82.843,53.162h0.108
		C83.06,53.271,82.951,53.162,82.843,53.162 M86.962,59.557c0.217,0.542,0.217,0.975,0.325,1.409l0.541,0.975
		c0.434,0.976,0.976,1.843,1.301,2.818c0-0.108,0.108,0.108,0.108,0.217l0.217,0.325c-0.325-0.976-0.867-1.951-1.301-3.035
		L86.962,59.557z M97.474,95.537c0-2.168-0.217-4.335-0.325-6.502l0.217,1.517C97.474,92.286,97.582,93.912,97.474,95.537
		 M84.686,58.473L84.686,58.473c0-0.217,0-0.325,0-0.325V58.473z M88.153,63.566L88.153,63.566l0.108,0.217c0,0,0,0,0.108,0.542
		C88.37,64.325,88.262,63.892,88.153,63.566 M79.158,124.582c0.434-0.217,0.867-0.434,1.192-0.65l0.217-0.108
		c0,0,0-0.108,0.217-0.217c3.034-1.733,5.853-4.227,7.694-7.586v-0.217c0.108-0.217,0.217-0.759,0.542-1.192l0.217-0.325
		c0.867-1.409,1.409-2.926,2.06-4.443c0.108-0.325,0.108-0.759,0.217-1.192c0.217-1.408,0.541-2.817,0.541-4.335
		c0,0.108-0.107,0.108-0.107,0.108c-0.108,0-0.108-0.434,0-0.759l0.107-0.541l-0.324,1.733v0.217
		c-0.108,0.65-0.217,1.192-0.325,1.843c-1.192,5.419-3.252,10.296-6.828,13.764l-0.217,0.108c0,0-0.108,0,0-0.108
		c2.168-2.385,3.359-4.769,4.66-8.128c1.409-3.902,1.951-8.237,2.06-12.681c0.217-4.66-0.217-9.104-1.409-13.872
		c-1.409-6.395-3.468-12.354-6.178-18.315c-1.083-2.167-1.842-4.335-1.517-4.877c0.217-0.325,0.649,0.108,1.3,0.867l-0.217-0.542
		l-0.434-0.867c-0.324-0.867-0.649-1.625-0.758-2.059l-0.108-0.65c-0.108-0.976-0.542-2.385-0.65-3.251l0.217,0.108v-0.217
		c-0.217-0.542-0.325-0.976-0.217-1.192h0.217c0.217,0,0.542,0.108,0.976,0.434c0.108-0.108,0.108,0,0.324,0
		c0-0.434,0-0.758,0.434-0.542c-0.108-0.216,0-0.216,0.217,0l0.217,0.325l0,0c0-0.108,0-0.217-0.108-0.325
		c-0.108-0.216-0.217-0.325-0.217-0.325c-0.325-0.542-0.325-0.542-0.649-1.084c-0.217-0.434-0.325-0.759-0.325-0.759
		c0-0.65,0-0.65,0.108-0.65l0.108,0.108c-0.217-0.434-0.217-0.434-0.217-0.542s-0.108-0.217-0.108-0.217V51.32l0,0
		c0.217,0.108,0.217,0.108,0.217,0.108l0.108,0.108c0.216,0.217,0.216,0.325,0.324,0.325c0.217,0.65,0.217,0.65,0.217,0.65
		c0.108,0.108,0.108,0.108,0.108,0.108v0.217v-0.108c0.108,0.325,0.108,0.325,0.108,0.325c-0.108-0.325-0.108-0.325-0.108-0.325
		c0.325,0.65,0.325,0.65,0.542,0.867c0.108,0.217,0.325,0.434,0.325,0.542l0,0c0.325,0.65,0.325,0.65,0.759,1.3v0.217
		c0.108,0,0.108,0.217,0.217,0.325l0.217,0.325v0.108l0,0l0.217,0.217v0.108l0,0c0.108,0.217,0.325,0.433,0.867,1.192l0.325,0.542
		l-0.108-0.217c0-0.108,0.108-0.108,0.108-0.108c-0.759-1.517-1.518-3.143-2.385-4.66c-0.217-0.217-0.325-0.542-0.325-0.65
		s0.217,0.108,0.434,0.325c2.276,2.818,4.443,6.828,5.853,10.404l1.084,2.818v-0.108l0.217,0.758v0.108l-0.108-0.65l-0.108-0.434
		c-0.867-2.167-1.626-4.119-2.493-6.178c-0.434-1.083-0.867-2.059-1.409-3.143c-0.107-0.217-0.216-0.434-0.107-0.434
		c0.107,0,0.216,0.217,0.324,0.434c2.06,3.251,3.794,7.261,4.552,10.295c0.325,0.65,0.542,1.301,0.65,1.843l0,0l-0.108-0.542
		c0.217,0.542,0.217,0.758,0.325,1.3l0.108-0.217c0.867,2.493,1.843,5.094,2.276,7.37l-0.108,0.217
		c0.434,0.976,0.867,1.95,1.084,3.144l-0.217-1.193c0.217,0.867,0.542,1.734,0.758,2.602c0.65,2.492,0.759,5.419,0.65,6.828
		c0.65,4.984,0.976,9.971,0.542,15.064c0,0.216-0.108,0.541-0.108,0.541s-0.108-0.108,0-0.434c0.217-3.685,0.217-7.261-0.217-10.837
		c0.108,3.034,0.108,6.069-0.108,9.212l-0.217,1.084l-0.217,1.191c-0.433,4.01-1.517,7.695-3.251,11.597
		c-1.409,3.359-3.468,5.961-6.069,8.67c-4.01,3.576-8.995,5.419-14.197,5.527c-0.649,0-1.3,0-1.408-0.217
		c-0.108-0.108,0.434-0.217,1.083-0.217c11.271,0,20.05-9.537,22.435-19.616c0.217-1.084,0.542-2.167,0.759-3.251l0,0
		c-0.108,0-0.108-0.108-0.108-0.325c-0.217,1.192-0.65,2.492-0.976,3.685c-0.867,3.359-2.06,6.937-4.552,9.971
		c-1.626,2.168-3.576,3.685-5.744,4.985c-2.493,1.843-5.636,2.926-8.778,3.576c-0.108,0-0.217,0-0.325,0c0,0,0,0,0.108-0.108
		c2.167-0.542,4.335-1.084,6.286-2.275c-0.325,0.108-0.542,0.108-0.65,0c0-0.108,0.217-0.325,0.542-0.542l-1.409,0.542
		c-0.325,0.108-0.542,0.217-0.542,0.108s0.217-0.217,0.434-0.325c1.95-0.65,3.576-1.734,5.202-2.927
		c1.842-1.517,3.359-3.359,4.66-5.418c-0.217,0.216-0.434,0.324-0.65,0.433l0,0l-0.65,0.867c-3.576,5.744-10.729,8.995-17.665,8.562
		c-0.108,0-0.217,0-0.217,0s0.108,0,0.217,0c2.059,0,4.227,0,6.178-0.541l0,0c-0.108,0-0.108,0,0-0.108l0.324-0.108
		c0.108,0,0.108,0,0,0.108c3.794-0.976,7.262-3.035,9.646-5.961c-2.275,2.709-5.526,4.443-8.778,5.527l-1.084,0.325
		c-0.107,0-0.216,0-0.324,0c0,0,0-0.108,0.108-0.108l0.324-0.108c-0.649,0.108-1.191,0.108-1.191,0s0.542-0.325,1.191-0.434
		c1.734-0.325,3.36-1.192,4.985-1.951l0.434-0.325l0.434-0.434c-2.275,1.626-4.985,2.385-7.694,2.818c-0.217,0-0.434,0.108-0.434,0
		c0,0,0.217-0.108,0.434-0.217c4.66-0.867,8.995-3.469,11.704-7.37c0.759-1.408,1.518-2.709,1.951-4.227l-0.108,0.434
		c-2.385,4.443-5.202,8.02-9.971,9.862c-0.108,0.108-0.217,0.108-0.217,0.108s0-0.108,0.217-0.108
		c2.276-0.867,4.01-2.276,5.744-3.901c1.409-1.409,2.384-2.927,3.359-4.552c-1.842,3.143-4.443,5.744-7.694,7.478l-0.434,0.108
		l-0.108,0.108l-1.301,0.759L79.158,124.582C79.05,124.69,79.158,124.69,79.158,124.582"/>
	<path fill="#FFF" d="M62.36,127.183l-1.192,0.108L62.36,127.183L62.36,127.183z M63.444,130.543l0.433,0.217
		C63.444,130.543,63.444,130.543,63.444,130.543 M66.262,131.41l-0.325-0.108L66.262,131.41z M65.503,131.41l0.217,0.108
		c0,0,0,0-0.434,0C65.286,131.519,65.395,131.519,65.503,131.41 M51.197,125.232c-0.867-0.759-1.626-1.301-2.275-1.843l-1.843-1.517
		c-1.626-1.409-3.359-2.71-4.66-4.227c0.108,0.216-0.217-0.108-0.434-0.325l-0.542-0.542c1.518,1.625,3.035,3.143,4.769,4.552
		C47.838,122.739,49.571,124.148,51.197,125.232 M15.65,59.557c0,4.443,0.649,8.778,1.3,13.113
		c-0.217-1.084-0.434-2.059-0.542-3.143C15.867,66.276,15.542,62.916,15.65,59.557 M55.532,126.316L55.532,126.316
		c0.217,0.217,0.434,0.325,0.434,0.325L55.532,126.316z M44.803,119.488l0.108,0.108l-0.541-0.542c0,0,0,0-0.65-0.867
		C43.828,118.296,44.262,118.946,44.803,119.488 M67.237,44.167c-0.759-0.759-1.518-1.409-2.276-1.951l-0.325-0.325
		c0,0.108-0.108,0-0.434-0.217c-5.96-4.66-13.113-8.995-20.699-9.971c-0.108,0-0.108,0-0.325,0c-0.542,0-1.626-0.108-2.602-0.108
		h-0.758c-3.252,0-6.395,0.867-9.213,2.493c-0.541,0.434-1.083,0.867-1.733,1.409c-1.951,1.951-3.685,4.118-4.769,6.828
		c0.108-0.108,0.217-0.217,0.217-0.217c0.108,0.108-0.217,0.65-0.542,1.409l-0.434,1.084c0.325-1.084,0.976-2.059,1.518-3.035
		v-0.325c0.542-1.083,1.408-1.951,2.059-3.035c6.937-8.778,19.616-7.261,28.828-1.842c0.108,0.108,0.434,0.217,0.542,0.325
		s0,0.108-0.108,0c-6.069-3.035-12.138-4.877-18.857-3.685c-8.236,1.3-13.113,9.104-14.414,17.882
		c-1.626,9.212,0,18.532,3.034,27.961c4.444,12.788,11.271,24.168,20.483,33.38c3.468,3.468,6.828,6.394,7.045,7.044
		c0.108,0.434-0.976,0.217-2.71-1.084l0.976,0.759c0.434,0.434,0.976,0.759,1.518,1.084c1.517,1.084,2.709,2.06,3.468,2.709
		l1.084,0.759c1.408,1.192,3.901,2.818,5.202,3.469h-0.325l0.325,0.107c1.083,0.434,1.733,0.867,1.95,1.084l-0.108,0.108
		c-0.325,0.108-0.867,0.108-1.842,0c0,0.108-0.108,0.108-0.434,0.108c0.759,0.434,1.083,0.759,0.325,0.759
		c0.434,0.217,0.325,0.217-0.217,0.108l-0.65-0.217l0,0c0.217,0.108,0.325,0.217,0.65,0.325c0.434,0.217,0.759,0.325,0.759,0.325
		c1.3,0.434,1.3,0.542,2.384,0.759c0.976,0.217,1.626,0.434,1.626,0.434c1.083,0.542,1.083,0.542,0.867,0.65h-0.217
		c0.866,0.216,0.975,0.216,1.191,0.216c0.217,0.108,0.434,0.108,0.434,0.108c0,0.108,0,0.108,0.217,0.108v0.108
		c-0.542,0-0.542,0-0.542,0c-0.108,0-0.325,0-0.325,0c-0.65-0.108-0.866-0.108-0.975-0.108c-1.301-0.433-1.301-0.433-1.301-0.433
		c-0.325,0-0.325,0-0.325,0c-0.325-0.108-0.325-0.108-0.325-0.108c0.108,0.108,0.108,0.108,0.108,0.108
		c-0.65-0.108-0.65-0.108-0.65-0.108c0.759,0.217,0.759,0.217,0.759,0.217c-1.518-0.325-1.518-0.217-2.168-0.434
		c-0.649-0.217-1.191-0.325-1.191-0.434v0.108c-1.518-0.542-1.518-0.542-3.035-1.084l-0.325-0.217c-0.108,0-0.434-0.108-0.759-0.217
		l-0.758-0.434l-0.217-0.108l0,0l-0.65-0.325c-0.108-0.108-0.108-0.108-0.108-0.108l0,0c-0.434-0.217-1.084-0.434-2.818-1.192
		c-0.433-0.216-0.866-0.433-1.191-0.758l0.325,0.217c0.217,0.217,0,0.108,0.108,0.217c3.034,1.842,6.502,3.576,10.187,4.66
		c0.65,0.216,1.301,0.324,1.409,0.433s-0.434,0.108-1.192-0.108c-7.911-1.517-16.039-7.044-21.458-12.463l-4.227-4.443l0.217,0.217
		l-1.084-1.192l-0.108-0.108l0.65,0.976l0.542,0.65c3.251,3.468,6.285,6.611,10.079,9.429c2.167,1.409,3.685,2.926,5.96,4.01
		c0.542,0.325,0.976,0.542,0.867,0.542s-0.65-0.217-1.192-0.542c-7.261-3.793-13.872-10.188-17.665-15.173
		c-0.867-1.083-1.733-2.167-2.384-3.143l0,0l0.434,0.759c-0.65-0.867-0.976-1.301-1.518-2.168l0.108,0.325
		c-3.034-4.227-6.286-8.995-8.236-13.33l-0.217-0.542c-1.084-1.843-2.168-3.576-3.144-5.96l0.976,2.275
		c-0.759-1.626-1.518-3.252-2.275-4.985c-1.843-4.335-3.252-9.971-3.36-12.789c-2.275-9.754-2.926-20.375,0.325-30.562
		c0.217-0.542,0.434-0.975,0.434-1.083c0.108,0,0,0.325-0.217,0.867C15,50.669,15,58.256,15.759,65.517
		c-0.542-6.069-0.434-12.355,1.191-18.641c0.217-0.867,0.325-1.625,0.65-2.384l0.867-2.276c3.034-7.695,10.079-14.522,19.183-15.173
		c7.586-0.65,13.98,1.518,20.158,4.877c8.778,4.877,15.389,11.271,21.241,18.966c0.759,1.084,1.409,2.059,1.409,2.276
		s-0.65-0.542-1.409-1.517c-6.068-8.02-13.547-14.956-22.542-19.833c-8.67-4.769-21.351-7.044-30.563,0.542
		c-1.842,1.625-3.468,3.36-4.66,5.311h0.108c0,0,0,0.217-0.217,0.542c1.518-2.167,3.144-4.227,5.311-5.96
		c5.853-4.985,14.414-5.96,21.676-3.685c5.094,1.517,9.212,4.01,13.113,6.828c4.985,3.468,9.429,7.586,13.438,12.138
		c0.108,0.216,0.325,0.433,0.325,0.433c0,0.108-0.108,0-0.217-0.217c-2.817-3.143-5.853-6.177-9.212-8.778
		c0.434,0.542,0.759,0.867,0.65,0.867s-0.542-0.217-1.192-0.65c0.759,0.65,1.518,1.192,2.168,1.951
		c0.434,0.434,0.759,0.759,0.65,0.759c0,0-0.434-0.217-0.867-0.65c-2.927-2.601-6.069-5.094-9.429-7.153
		c-4.118-2.384-8.562-4.227-13.33-4.985c0.649,0.108,1.083,0.325,1.3,0.542l0,0l2.168,0.542
		c13.113,3.685,23.626,13.764,31.429,25.035c0.108,0.217,0.325,0.434,0.217,0.434c0,0-0.108-0.108-0.325-0.325
		c-2.384-3.359-4.877-6.719-7.803-9.754l0,0c0.108,0.108,0.108,0.217,0,0c-0.108-0.108-0.325-0.325-0.434-0.433s-0.108-0.108,0,0
		c-5.311-5.636-11.597-10.296-18.532-13.331c6.395,2.926,12.138,7.153,17.015,12.138l1.626,1.625
		c0.108,0.108,0.325,0.325,0.325,0.434s-0.108,0-0.217-0.217l-0.434-0.433c0.867,0.975,1.518,1.842,1.409,1.842
		s-0.976-0.759-1.951-1.734c-2.492-2.709-5.311-5.093-8.128-7.261l-0.976-0.65l-0.976-0.65c4.66,3.251,8.67,7.261,12.355,11.488
		c0.325,0.325,0.542,0.759,0.542,0.759s-0.325-0.217-0.65-0.65C65.611,41.241,57.7,34.63,48.271,31.595
		c-3.144-0.758-6.395-1.083-9.537-0.758h1.191c10.296,0.217,18.966,5.31,26.661,12.138c0.217,0.217,0.325,0.325,0.325,0.434
		c0,0-0.108-0.108-0.325-0.217c-3.793-3.468-7.587-6.177-12.139-8.345c-3.685-1.842-7.478-3.035-11.162-3.468
		c7.586,1.084,14.414,4.877,20.482,9.862c0.325,0.217,0.542,0.434,0.65,0.65L64.636,42c0.759,0.65,1.626,1.3,2.385,2.059
		c0.108,0.108,0.325,0.325,0.434,0.434C67.563,44.384,67.454,44.384,67.237,44.167"/>
	<path fill="#FFF" d="M102.567,28.236l0.542-0.976L102.567,28.236L102.567,28.236z M99.316,27.043l-0.325,0.217
		C99.316,27.043,99.316,27.043,99.316,27.043 M97.148,28.777l0.217-0.216L97.148,28.777z M97.474,28.236l-0.108,0.108l0.217-0.325
		C97.582,27.911,97.582,28.019,97.474,28.236 M110.046,20.216c1.191-0.217,2.059-0.434,2.926-0.542l2.385-0.325
		c2.167-0.217,4.443-0.217,6.502,0.542c-0.217-0.108,0.217,0,0.542,0.108l0.759,0.217c-2.168-0.867-4.443-1.192-6.828-1.192
		C114.164,19.24,111.888,19.674,110.046,20.216 M132.479,77.222c1.192-3.901,2.168-7.912,3.034-11.921l-0.542,2.926
		C134.322,71.369,133.455,74.295,132.479,77.222 M106.902,23.142L106.902,23.142c-0.325,0.108-0.542,0.108-0.542,0.108
		L106.902,23.142z M118.716,19.674h-0.217l0.759,0.108c0,0,0,0,0.976,0.325C120.233,19.999,119.475,19.891,118.716,19.674
		 M90.538,131.951c0.867-0.433,1.625-0.975,2.384-1.517l0.434-0.217c-0.108,0,0.108-0.108,0.434-0.325
		c5.744-4.118,11.055-9.862,15.498-16.04l0.108-0.325c0.217-0.434,0.759-1.408,1.409-2.275l0.541-0.65
		c1.951-2.709,3.794-5.527,5.527-8.453c0.325-0.65,0.65-1.301,1.084-2.06c1.192-2.601,2.493-5.202,3.576-8.02
		c-0.108,0.108-0.217,0.217-0.217,0.217c0-0.108,0.217-0.759,0.542-1.518l0.542-1.083l-1.518,3.143l-0.217,0.434l-1.625,3.576
		c-5.094,10.188-10.946,19.183-18.315,26.769l-0.434,0.434c-0.108,0.108-0.108,0,0-0.108c4.552-4.877,7.803-9.646,11.704-16.039
		c4.552-7.587,8.346-15.715,11.38-24.277c3.359-8.886,5.419-17.556,6.286-27.093c1.191-12.03-0.65-26.986-9.104-30.129
		c-3.034-0.975-6.61-0.433-7.261-0.65c-0.434-0.108,0.434-0.976,2.06-1.192l-0.976,0.108c-0.542,0.108-1.084,0.325-1.626,0.434
		c-1.518,0.325-2.817,0.867-3.685,1.084l-1.192,0.325c-1.625,0.542-4.118,1.626-5.527,2.276l0.108-0.325l-0.325,0.216
		c-0.975,0.542-1.625,0.976-1.95,0.976v-0.217c0-0.325,0.325-0.759,0.976-1.517c-0.108,0,0-0.217,0.108-0.325
		c-0.759,0.325-1.192,0.434-0.759-0.217c-0.434,0.217-0.434,0.108,0-0.217l0.542-0.434l0,0c-0.217,0.108-0.325,0.108-0.65,0.325
		c-0.434,0.325-0.65,0.434-0.65,0.434c-1.084,0.759-1.084,0.759-1.843,1.409c-0.759,0.542-1.3,0.867-1.3,0.867
		c-0.976,0.434-0.976,0.434-0.976,0.217l0.108-0.217c-0.65,0.542-0.759,0.542-0.867,0.759c-0.217,0.108-0.325,0.217-0.325,0.217
		c-0.108,0-0.108,0-0.217,0h-0.108c0.325-0.434,0.325-0.434,0.325-0.434c0.108-0.108,0.217-0.217,0.217-0.217
		c0.434-0.434,0.542-0.542,0.65-0.65c0.976-0.65,0.976-0.65,0.976-0.65l0.108-0.216l0.217-0.108c-0.217,0-0.217,0-0.217,0
		l0.433-0.325c-0.541,0.434-0.541,0.434-0.541,0.434c1.083-0.976,1.083-0.976,1.517-1.301s0.867-0.65,0.976-0.759h-0.108
		c1.301-0.867,1.301-0.867,2.493-1.842l0.325-0.217c0.107-0.108,0.324-0.217,0.649-0.434l0.65-0.433l0.108-0.108l0,0l0.542-0.434
		c0.108-0.108,0.108-0.108,0.108-0.108l0,0c0.434-0.217,0.867-0.759,2.493-1.625l1.191-0.542l-0.217,0.542
		c-0.217,0.108-0.108-0.108-0.217,0c-3.251,1.3-6.177,3.359-9.104,5.527c-0.542,0.434-0.976,0.759-1.083,0.759
		c-0.108,0,0.216-0.325,0.649-0.759c5.202-4.769,13.872-10.079,22.76-8.453c2.167,0.542,4.443,1.3,6.285,2.601l-0.217-0.217
		c0.542,0.325,0.976,0.65,1.409,1.083l0.108,0.108c-0.325-0.325-0.542-0.65-0.976-0.867l-0.759-0.542
		c-4.552-2.926-9.754-3.251-14.522-2.167c-2.601,0.542-4.552,1.409-6.719,2.384c-0.542,0.325-0.867,0.542-0.867,0.434
		s0.434-0.434,0.976-0.65c6.502-4.335,18.749-4.877,23.843,1.192c1.3,0.976,2.275,2.167,2.926,3.251l0,0l-0.542-0.867
		c0.65,0.976,1.084,1.409,1.518,2.384l-0.108-0.433c3.034,4.769,4.335,10.404,4.769,15.172l0.108,0.542
		c0.217,1.951,0.65,4.01,0.542,6.394c0-0.758,0-1.625,0-2.384c0.108,1.734,0.108,3.468,0.217,5.311
		c-0.217,4.985-1.084,10.513-2.06,12.897c-1.625,9.429-4.335,18.532-7.911,27.202c-0.217,0.434-0.434,0.867-0.434,0.867
		c-0.108,0,0-0.325,0.217-0.759c2.492-6.285,4.66-12.788,6.286-19.508c-1.518,5.527-3.252,11.055-5.527,16.473l-0.759,2.06
		l-0.976,2.06c-3.034,6.828-6.395,13.113-10.621,19.616c-3.576,5.527-7.152,10.079-11.921,14.739
		c-6.611,6.285-14.197,12.571-25.252,11.813c-1.408,0-2.709-0.759-2.817-0.759c-0.108-0.217,0.867,0.108,2.275,0.325
		c11.38,0.867,19.725-6.069,26.336-12.571c6.719-6.828,12.029-14.848,16.906-23.409c1.084-1.843,1.951-3.686,2.927-5.527h-0.108
		c-0.108,0,0-0.217,0.108-0.542c-1.084,2.06-2.06,4.227-3.36,6.286c-3.034,5.852-6.61,11.487-11.162,17.015
		c-3.144,3.685-6.286,6.828-9.971,9.646c-4.443,3.685-9.429,7.045-15.498,8.236c-0.217,0-0.542,0-0.65,0s0,0,0.325-0.108
		c4.227-0.866,8.02-2.817,11.38-5.094c-0.542,0.325-0.976,0.434-0.976,0.325s0.434-0.434,0.976-0.975
		c-0.759,0.541-1.626,0.975-2.385,1.408c-0.542,0.325-0.867,0.434-0.976,0.434c0-0.108,0.325-0.325,0.867-0.542
		c3.36-1.842,6.286-4.227,8.995-6.719c3.252-3.144,6.178-6.503,8.887-10.079c-0.433,0.434-0.758,0.759-0.975,0.867l0,0l-1.301,1.625
		c-7.586,9.104-18.641,20.917-32.946,17.124c-0.217-0.108-0.434-0.217-0.434-0.217s0.217,0,0.434,0.108
		c3.901,1.517,8.236,1.084,12.029-0.217l0,0c-0.108,0-0.217,0,0,0l0.542-0.217c0.217,0,0.217,0,0,0
		c6.937-2.818,12.572-7.695,17.341-13.113c-4.552,4.877-9.537,9.429-15.823,12.029l-1.951,0.976
		c-0.217,0.108-0.434,0.108-0.542,0.108s0.108-0.108,0.217-0.108l0.542-0.217c-1.191,0.434-2.167,0.542-2.167,0.434
		c0-0.217,1.083-0.434,2.275-0.976c3.252-1.192,6.178-3.143,8.995-5.202l0.867-0.759l0.867-0.758
		c-4.118,3.359-8.887,6.177-13.98,7.369c-0.434,0.108-0.867,0.108-0.867,0.108s0.325-0.108,0.759-0.217
		c8.995-2.385,16.148-9.32,22.217-16.474c1.843-2.492,3.577-5.094,5.202-7.803l-0.65,0.976c-5.96,8.236-11.487,15.39-20.049,20.375
		c-0.217,0.108-0.434,0.216-0.434,0.216s0.108-0.107,0.325-0.216c4.227-2.385,7.478-5.311,10.837-8.779
		c2.818-2.817,5.094-5.852,7.262-8.887c-4.552,5.961-9.429,11.488-15.498,15.715c-0.217,0.217-0.542,0.325-0.759,0.434l-0.108,0.108
		c-0.759,0.542-1.625,1.084-2.492,1.625c-0.217,0.108-0.434,0.217-0.542,0.217C90.213,132.06,90.321,132.06,90.538,131.951"/>
	<path fill="#FFF" d="M69.079,69.31c1.843-4.552,4.011-8.995,6.286-13.438c0.108-0.108,0.108-0.325,0.108-0.325
		s-0.108,0.108-0.108,0.217C72.981,60.207,70.813,64.65,69.079,69.31c-0.108,0.108-0.108,0.217-0.108,0.217
		S68.971,69.418,69.079,69.31"/>
	<path fill="#FFF" d="M72.439,130.76l-0.867-0.108L72.439,130.76L72.439,130.76z M71.464,133.686l0.217,0.217
		C71.572,133.686,71.572,133.686,71.464,133.686 M72.981,134.986l-0.217-0.108L72.981,134.986z M72.548,134.878L72.548,134.878
		c0.108,0.108,0.108,0.108-0.217,0C72.331,134.878,72.439,134.878,72.548,134.878 M65.72,127.183
		c-0.325-0.649-0.325-1.3-0.434-1.842l-0.542-1.409c-0.542-1.301-0.759-2.601-1.084-3.901c0,0.217-0.107-0.108-0.107-0.325
		l-0.108-0.434c0.324,1.409,0.541,2.71,0.975,4.118C64.853,124.69,65.286,125.991,65.72,127.183 M66.045,79.932
		c-0.759,2.601-1.518,5.094-2.168,7.694l0.434-1.951C64.853,83.832,65.503,81.882,66.045,79.932 M68.321,128.809L68.321,128.809
		c0,0.217,0.107,0.325,0.107,0.325L68.321,128.809z M64.527,121.765v0.108l-0.108-0.434c0,0,0,0,0-0.65
		C64.419,120.789,64.419,121.331,64.527,121.765 M89.888,40.699c-0.325,0.542-0.759,1.084-0.976,1.518l-0.217,0.325
		c0.108,0,0,0.108-0.108,0.325c-2.601,4.01-5.202,8.345-7.478,12.789v0.217c-0.108,0.325-0.325,0.976-0.759,1.625l-0.325,0.434
		c-0.976,1.951-2.06,3.901-3.034,5.853c-0.108,0.434-0.325,0.867-0.542,1.409c-0.65,1.734-1.301,3.577-1.951,5.419
		c0.108-0.108,0.108-0.108,0.108-0.108c0.108,0.108,0,0.542-0.217,0.975l-0.325,0.759l0.867-2.059l0.108-0.325l0.976-2.276
		c2.817-6.828,5.853-13.113,9.32-19.183l0.217-0.325c0.108,0,0.108,0,0,0.108c-2.06,3.902-3.468,7.37-5.419,11.921
		c-2.384,5.311-4.335,10.729-6.069,16.473c-2.059,5.853-3.359,11.488-4.227,17.665c-1.192,8.346-1.517,16.365,0,23.951
		c0.65,2.818,1.301,5.094,0.976,5.744c-0.217,0.325-0.65-0.108-1.301-1.192l0.217,0.65l0.325,1.084
		c0.434,0.976,0.759,1.734,0.867,2.385l0.217,0.758c0.325,0.976,0.976,2.602,1.518,3.36h-0.217l0.108,0.217
		c0.434,0.542,0.758,0.975,0.758,1.191l-0.217,0.108c-0.216,0.108-0.649,0-1.191-0.217c0,0.108-0.108,0.108-0.325,0
		c0.217,0.434,0.325,0.759-0.108,0.65c0.217,0.217,0.108,0.325-0.217,0.108l-0.325-0.325l0,0c0.108,0.108,0.108,0.217,0.325,0.434
		s0.325,0.325,0.325,0.325c0.65,0.542,0.65,0.65,1.301,1.084c0.541,0.434,0.866,0.65,0.866,0.65c0.542,0.65,0.542,0.65,0.325,0.759
		h-0.108c0.542,0.325,0.542,0.325,0.65,0.434s0.217,0.216,0.217,0.216c0,0.108,0,0.108,0.108,0.108v0.108
		c-0.325-0.108-0.325-0.108-0.325-0.108c-0.108,0-0.217-0.108-0.217-0.108c-0.325-0.216-0.542-0.216-0.542-0.216
		c-0.65-0.65-0.65-0.65-0.65-0.65c-0.216,0-0.216,0-0.216,0c-0.108-0.217-0.108-0.217-0.108-0.217
		c0.108,0.108,0.108,0.108,0.108,0.108c-0.325-0.217-0.325-0.217-0.325-0.217c0.434,0.325,0.434,0.325,0.434,0.325
		c-0.867-0.542-0.867-0.542-1.192-0.759c-0.325-0.325-0.65-0.542-0.65-0.542v0.108c-0.867-0.759-0.867-0.759-1.626-1.518
		l-0.108-0.217c-0.108-0.108-0.217-0.217-0.325-0.325l-0.325-0.434l-0.108-0.108l0,0l-0.325-0.324l-0.107-0.108l0,0
		c-0.217-0.217-0.65-0.542-1.301-1.518l-0.434-0.867l0.108,0.217c0.108,0.217-0.108,0.108,0,0.108
		c0.976,2.06,2.709,4.118,4.769,5.853c0.325,0.325,0.759,0.542,0.759,0.65s-0.325,0-0.759-0.325
		c-4.769-2.927-7.695-9.104-8.562-13.98c-0.325-1.301-0.65-2.602-0.759-3.902v0.217l-0.108-0.975v-0.108v0.758v0.542
		c0.434,3.035,1.084,5.744,2.167,8.671c0.542,1.517,1.301,2.926,2.06,4.335c0.217,0.325,0.434,0.649,0.325,0.649
		s-0.325-0.324-0.65-0.649c-3.143-4.66-4.552-10.513-4.552-14.522c-0.217-0.867-0.217-1.734-0.217-2.493l0,0l-0.108,0.542
		c0-0.65,0-1.084,0-1.626l-0.108,0.217c-0.217-3.359-0.217-6.936,0.217-9.862v-0.324c0-1.301-0.108-2.602,0.108-4.118l-0.217,1.517
		c0.108-1.083,0.108-2.167,0.325-3.359c0.434-3.251,1.301-6.72,2.06-8.237c1.191-6.068,3.034-12.029,5.093-17.773
		c0.108-0.325,0.217-0.542,0.325-0.542s0,0.217-0.108,0.542c-1.408,4.227-2.709,8.453-3.793,12.789
		c1.084-3.576,2.276-7.153,3.576-10.729l0.542-1.409l0.542-1.3c1.734-4.552,3.685-8.779,5.853-13.331
		c1.843-3.793,3.685-7.153,5.853-10.837c3.143-5.094,6.394-9.646,10.513-13.98c0.541-0.542,1.083-1.084,1.3-1.084
		c0.108,0-0.217,0.542-0.759,1.084c-8.562,8.887-14.522,19.399-19.832,31.104c-0.542,1.3-1.192,2.493-1.626,3.793h0.108
		c0.108,0,0.108,0.217,0,0.434c0.542-1.409,1.301-2.818,1.951-4.227c1.625-4.01,3.468-7.912,5.852-11.813
		c1.626-2.709,3.252-5.094,5.094-7.37c2.06-3.143,4.227-6.069,6.72-8.995c0.108-0.108,0.217-0.217,0.217-0.217s0,0-0.108,0.217
		c-1.626,2.059-3.144,4.118-4.66,6.394c0.325-0.325,0.542-0.434,0.65-0.325s0,0.434-0.325,0.867l1.083-1.409
		c0.217-0.325,0.434-0.542,0.434-0.433c0,0-0.108,0.325-0.325,0.542c-1.517,1.951-2.926,3.902-4.227,5.961
		c-1.517,2.493-3.034,4.985-4.443,7.586c0.217-0.325,0.434-0.542,0.65-0.65l0,0l0.65-1.192c3.901-7.261,8.778-14.306,14.848-20.266
		c0.108-0.108,0.217-0.217,0.217-0.217s-0.108,0.108-0.217,0.217c-1.843,1.842-3.576,3.685-5.202,5.744l0,0
		c0.108-0.108,0.108-0.108,0,0l-0.217-0.108c-0.108,0.108-0.108,0.108,0,0c-2.926,3.685-5.744,7.586-7.911,11.705
		c2.167-3.685,4.769-7.261,7.478-10.621l0.867-1.192c0.108-0.108,0.217-0.217,0.217-0.217s0,0.108-0.108,0.217l-0.217,0.325
		c0.542-0.65,0.976-1.083,1.084-0.975s-0.325,0.759-0.867,1.409c-1.409,1.734-2.818,3.577-4.118,5.419l-0.434,0.65l-0.325,0.65
		c2.059-2.926,4.227-5.635,6.503-8.128c0.216-0.217,0.433-0.434,0.433-0.325c0,0-0.108,0.217-0.324,0.434
		c-3.902,4.769-7.37,9.862-10.404,15.281l-2.493,5.636l0.325-0.65c3.144-5.852,5.744-11.054,9.646-16.256
		c0.108-0.108,0.217-0.217,0.217-0.217s0,0.108-0.108,0.217c-1.95,2.493-3.359,5.094-4.985,7.695
		c-1.301,2.276-2.492,4.443-3.468,6.611c2.275-4.335,4.66-8.453,7.478-12.463c0.108-0.217,0.217-0.325,0.325-0.433V42.65
		l1.084-1.626c0.108-0.108,0.217-0.217,0.217-0.325C89.996,40.482,89.996,40.591,89.888,40.699"/>
	<path fill="#FFF" d="M39.818,74.946v-0.867c0,0.542,0.107,1.301,0.107,2.276c0.108-8.887,0.867-20.483,2.493-27.961
		c0.65-2.709,1.192-5.094,1.192-5.311c-0.108-0.325-0.867,1.626-1.518,4.335c-0.217,0.542-0.325,1.3-0.542,1.734
		c-1.084,3.793-2.167,8.562-2.709,13.872c0.108-0.976,0.217-2.059,0.434-3.143c-0.217,1.518-0.325,3.035-0.542,4.769L38.843,64
		c-0.65,5.31-0.542,12.571,0,16.148c0.65,3.684,0.867,2.275,0.759-2.927L39.818,74.946z"/>
	<path fill="#FFF" d="M41.01,65.3c-0.325,3.143-0.542,6.069-0.542,9.104v0.542l0.217-0.217v-0.108
		c-0.325-2.818-0.325-7.478,0.108-11.705l0.108-1.517c0-0.759,0-1.192,0-1.409c-0.108-0.325-0.325,0.976-0.542,2.926l-0.217,2.276
		c-0.541,5.636-0.324,14.523,0.434,17.557c0.108,0.649,0.217,0.108,0.325-0.108c0.217,0.217,0.108-1.951,0-4.66
		c0-2.818-0.217-5.202-0.434-5.419l0.108-1.409v1.083c-0.108-0.759-0.108-3.359-0.108-5.202c0-0.975,0.108-1.842,0.108-2.817
		l-0.542,1.625v1.517c0-0.108,0-0.325,0-0.325c0,2.818,0,5.527,0.217,8.562c0.108,1.301,0.108,2.602,0.325,3.902
		c0.108,1.084,0.217,0.975,0.217-0.217v-1.734v0.759c-0.108-3.902,0-8.128,0.325-12.03c0.108-0.65,0.108-1.409,0.108-1.734
		C41.118,64.325,41.01,64.65,41.01,65.3"/>
	<path fill="#FFF" d="M40.901,79.172c0,0.65,0,1.301,0.108,2.168c0,0.217,0,0.325,0.108,0.434c0-0.325,0-0.759,0-1.301
		C41.01,79.605,41.01,79.172,40.901,79.172"/>
	<path fill="#FFF" d="M41.118,81.773c0,0.325,0,0.542,0,0.542V81.99C41.118,81.773,41.118,81.773,41.118,81.773L41.118,81.773z"
		/>
	<path fill="#FFF" d="M103.977,99.439c-2.385,11.921-6.069,24.601-16.257,33.704c-0.325,0.325-0.649,0.542-0.649,0.542
		s0.324-0.217,0.649-0.434c10.296-8.995,13.872-21.675,16.365-33.596c0.108-0.434,0.108-0.76,0.108-0.76
		C104.085,98.789,103.977,99.113,103.977,99.439"/>
	<path fill="#FFF" d="M47.621,106.809C47.729,107.134,47.729,107.134,47.621,106.809c0-0.325-0.108-0.759-0.217-0.976
		s-0.108-0.217,0,0C47.404,106.158,47.513,106.592,47.621,106.809"/>
	<path fill="#FFF" d="M44.37,71.478l-0.434-1.734l0.434,1.842V71.478z M41.443,74.512c0,0.217,0,0.434,0,0.65
		C41.443,74.512,41.443,74.512,41.443,74.512 M41.443,78.955v-0.433V78.955z M41.227,77.98v0.325c0,0,0,0-0.108-0.65
		C41.118,77.547,41.227,77.764,41.227,77.98 M42.419,54.571c0.434-1.734,0.759-3.035,1.192-4.335l0.867-3.468
		c0.866-3.143,1.842-6.286,3.143-9.212c-0.217,0.325,0.108-0.325,0.217-0.759l0.434-1.083c-1.409,3.143-2.602,6.286-3.577,9.645
		C43.828,48.394,42.961,51.645,42.419,54.571 M104.519,72.02c-0.542-6.611-1.409-13.222-3.034-19.724l1.083,4.769
		C103.543,62.049,104.302,67.034,104.519,72.02 M42.961,61.074L42.961,61.074c-0.108,0.542-0.217,0.867-0.217,0.867
		C42.853,61.507,42.853,61.291,42.961,61.074 M46.32,42l-0.217,0.325l0.434-1.084c0,0,0,0,0.65-1.409
		C47.188,39.94,46.754,40.916,46.32,42 M50.222,108.65c0.542,1.518,1.192,3.035,1.843,4.227l0.325,0.759
		c0-0.108,0.108,0.217,0.434,0.759c4.66,9.862,14.631,22.217,26.01,18.315c0.108-0.108,0.217-0.108,0.434-0.217
		c0.759-0.217,2.06-1.083,3.468-1.842c0.325-0.217,0.65-0.434,0.976-0.759c4.01-3.034,7.045-7.479,9.429-12.246
		c0.434-0.976,0.976-2.168,1.409-3.469c1.626-4.335,2.817-8.887,3.576-13.547c-0.108,0.325-0.108,0.434-0.217,0.434
		c-0.108-0.108,0.108-1.192,0.325-2.492l0.325-1.951c-0.217,1.842-0.759,3.685-1.084,5.419l-0.217,0.759
		c-0.541,1.95-0.866,4.01-1.625,5.96c-2.602,8.563-6.72,16.907-13.222,21.567c-6.503,4.985-15.281,2.492-20.917-3.685
		c-0.217-0.217-0.434-0.542-0.65-0.65c-0.108-0.108,0-0.108,0.217,0.108c7.153,7.803,17.448,9.212,24.602,0.325
		c8.562-10.404,11.596-25.252,12.354-39.666c0.65-15.281-1.3-29.912-7.369-44C86.745,33.33,80.025,24.551,72.439,23.25
		c-7.479-1.192-14.522,6.611-18.208,15.714c-2.817,6.828-4.552,13.764-5.201,14.631c-0.325,0.542-0.434-1.3,0.217-4.443
		l-0.434,1.842l-0.65,2.926c-0.65,2.818-0.976,5.202-1.409,6.719l-0.434,2.059c-0.65,2.818-1.192,7.37-1.626,9.754l-0.107-0.542
		l-0.108,0.542c-0.108,1.842-0.217,3.035-0.325,3.469l-0.217-0.217c-0.217-0.434-0.434-1.301-0.65-2.818
		c-0.108,0-0.217-0.108-0.217-0.542c-0.217,1.301-0.325,1.842-0.65,0.867c0,0.758-0.108,0.65-0.217-0.325v-1.084l0,0
		c-0.108,0.434-0.108,0.542-0.108,1.084c0,0.759,0,1.192,0,1.192c0,2.059,0,2.059,0,3.793c0,1.517,0,2.493,0,2.493
		c-0.217,1.733-0.217,1.733-0.434,1.408l-0.108-0.325c0,1.409,0,1.409,0.108,1.843c0,0.434,0,0.65,0,0.65
		c-0.108,0.107-0.108,0.107-0.108,0.324c0,0.109,0,0.109-0.108,0.109c-0.108-0.76-0.108-0.76-0.217-0.76
		c0-0.217-0.108-0.433-0.108-0.433c-0.108-0.867-0.108-1.192-0.108-1.409c0.108-1.951,0.108-1.951,0.108-1.951l-0.108-0.434
		l0.108-0.434l-0.108,0.434v-0.975c0,1.084,0,1.084,0,1.084c-0.108-2.276,0-2.276-0.108-3.144c0-0.975,0-1.734,0-1.842
		c0,0.108,0,0.108,0,0.108c0-2.493,0-2.493,0.108-4.769l0.108-0.542c0-0.217,0-0.65,0-1.192v-1.301v-0.217l0,0
		c0-0.433,0-0.758,0-1.083c0-0.217,0-0.217,0-0.217l0,0c0-0.759,0.108-1.734,0.217-4.552l0.325-2.059l-0.108,0.65
		c-0.108,0.433-0.108,0-0.108,0.216c-0.759,5.202-1.192,10.946-1.084,16.473c0,0.976,0,1.951,0,2.06
		c-0.108,0.108-0.108-0.542-0.108-1.626c-0.866-11.379,0.867-25.685,5.311-36.848c1.192-2.926,2.493-5.853,4.01-8.67l-0.324,0.433
		l1.3-2.167l0.108-0.217l-1.084,1.518l-0.649,1.083c-3.469,6.611-5.636,13.005-7.262,19.833c-0.867,3.685-1.409,6.936-1.842,10.512
		c-0.108,0.867-0.217,1.518-0.217,1.409s0-0.976,0.108-1.842c1.083-11.921,4.877-25.469,10.945-33.705
		c1.301-1.842,2.602-3.685,4.01-4.985l0.108-0.108l-1.083,0.976c1.3-1.301,1.842-1.951,3.143-3.035l-0.65,0.434
		c6.069-6.611,18.857-8.128,25.577-2.601l0.759,0.542c3.034,1.842,5.635,4.227,8.02,7.369c-0.759-1.083-1.626-2.059-2.602-3.143
		c2.06,2.059,3.902,4.335,5.527,6.936c4.443,7.044,7.153,15.714,7.804,19.833c4.118,14.847,5.201,30.453,3.251,45.734
		c-0.108,0.759-0.217,1.518-0.325,1.626s0-0.434,0.108-1.192c1.409-10.945,1.084-22.217-0.542-33.163
		c1.301,9.212,1.518,18.641,0.65,28.178c-0.108,1.192-0.217,2.384-0.434,3.685l-0.542,3.576
		c-2.275,11.922-5.527,23.627-14.739,33.381c-7.911,8.995-22.976,7.694-30.236-1.084c-10.838-11.488-14.956-25.252-17.449-39.774
		c-0.325-1.95-0.434-3.793-0.325-4.01s0.325,1.192,0.65,3.144c2.602,14.955,7.153,30.345,18.966,41.616
		c5.527,5.743,16.04,8.236,23.518,3.359c7.37-4.443,11.597-11.922,14.631-19.291c1.301-3.251,2.385-6.503,3.143-9.754l-0.108,0.108
		c-0.107,0,0-0.325,0-0.867c-0.975,3.685-2.059,7.479-3.576,11.055c-3.793,9.32-10.837,21.783-24.71,21.241
		c-8.995-1.083-14.521-7.369-18.641-13.222c-5.31-7.803-8.562-16.581-10.729-25.576c-0.108-0.326-0.217-0.76-0.217-0.867
		c0-0.109,0.108,0,0.108,0.434c1.517,6.177,3.576,12.463,6.61,18.424c-0.434-0.976-0.542-1.626-0.434-1.518
		c0.108,0,0.542,0.759,1.192,1.843c-0.759-1.301-1.192-2.71-1.842-4.119c-0.325-0.866-0.65-1.517-0.542-1.517
		c0,0,0.325,0.65,0.758,1.517c2.385,5.636,5.311,10.946,9.429,15.606c4.66,5.419,12.464,9.537,19.941,7.262
		c-0.976,0.217-1.842,0.217-2.167,0.217l0,0c-1.084,0.217-2.276,0.217-3.469,0.108c-10.945-1.084-17.882-11.055-22.434-20.158
		c-4.552-9.537-6.936-19.941-8.128-30.454c0-0.434-0.108-0.758,0-0.758c0,0,0.108,0.324,0.108,0.65
		c0.65,6.394,1.842,12.68,3.685,18.748l0,0c-0.108-0.217,0-0.325,0,0c0.108,0.217,0.217,0.759,0.325,0.976c0.108,0.325,0,0.217,0,0
		c3.576,11.055,8.995,22.542,19.291,28.72c-9.537-5.744-14.631-16.148-18.099-26.118c-0.434-1.084-0.759-2.168-1.192-3.36
		c-0.108-0.325-0.217-0.759-0.217-0.867c0-0.107,0.108,0.108,0.217,0.434l0.325,0.976c-0.542-1.95-0.867-3.468-0.759-3.468
		c0.108,0.108,0.759,1.734,1.301,3.685c1.733,5.311,3.793,10.621,6.719,15.39l0.976,1.518l1.084,1.517
		c-4.877-7.261-7.911-15.497-9.862-23.95c-0.217-0.76-0.325-1.301-0.217-1.41c0,0,0.217,0.543,0.434,1.301
		c3.793,13.872,10.513,30.888,25.469,35.006c4.769,0.759,9.537-1.409,13.005-4.769l-1.409,1.192
		c-6.394,4.985-14.739,3.793-20.267-1.192c-5.852-4.66-9.753-11.488-12.896-18.857c-0.108-0.325-0.217-0.65-0.217-0.759
		c0,0,0.108,0.217,0.217,0.542c3.035,7.152,6.72,13.655,12.464,18.641c4.66,4.118,10.837,5.961,15.931,3.793
		c-11.379,3.793-21.133-7.478-26.01-17.773c-0.217-0.434-0.434-0.976-0.542-1.301c0,0-0.108-0.108-0.108-0.217
		c-0.65-1.408-1.409-2.817-1.951-4.443c-0.108-0.325-0.217-0.65-0.325-0.867C50.005,108.109,50.113,108.325,50.222,108.65"/>
</g>
</svg>
