<?xml version="1.0" standalone="no"?><svg xmlns="http://www.w3.org/2000/svg" viewBox="0 0 1440 320"><path fill="url(#grad)" fill-opacity="1" d="M0,224L60,208C120,192,240,160,360,165.3C480,171,600,213,720,213.3C840,213,960,171,1080,128C1200,85,1320,43,1380,21.3L1440,0L1440,320L1380,320C1320,320,1200,320,1080,320C960,320,840,320,720,320C600,320,480,320,360,320C240,320,120,320,60,320L0,320Z"></path>
    <defs>
        <linearGradient id="grad" x1="0%" y1="0%" x2="0%" y2="100%">
        <stop offset="0%" style="stop-color:rgb(235, 244, 255);stop-opacity:1" />
        <stop offset="100%" style="stop-color:rgb(255,255,255);stop-opacity:1" />
        </linearGradient>
    </defs>
</svg>